<svg xmlns="http://www.w3.org/2000/svg" viewBox="0 0 500 500">
  <defs>
    <linearGradient id="bg" x1="0" y1="0" x2="1" y2="1">
      <stop offset="0%" stop-color="#FF6B00"/>
      <stop offset="100%" stop-color="#FF9E00"/>
    </linearGradient>
  </defs>
  <rect width="500" height="500" rx="110" ry="110" fill="url(#bg)"/>
  <path fill="#fff" d="M355.96,340.27l-20.4,31.2c-7.34,11.22-15.66,21.06-25.28,30.4-17.15,16.66-38.49,26.86-62.6,28.94-31.35,2.71-62.23-3.95-90.13-18.26-27.47-14.09-48.55-36.3-61.56-64.23-14.34-30.79-25.18-83.64-30.49-118.5-3.02-19.81-4.58-42.51,8.68-56.8,10.83-11.67,28.35-12.98,41.69-4.4,19.25,12.37,23.92,34.76,28.12,56.27,1.82,9.31,2.95,17.94,7,27.47l18.34-67.76c5.79-21.39,11.58-41.95,18.92-62.77,4.27-12.13,9.2-23.49,16.21-34.03,13.06-19.64,37.69-25.34,54.39-11.8,8.21,6.66,12.76,17.3,12.24,29.13-.51,11.62-4.16,22.31-6.23,34.27,11.01-19.86,21.66-49.03,40.7-60.14,10.33-6.03,22.53-6.42,33.14-.48,16.87,9.45,19.65,31.37,12.15,48.35l-11.77,26.64c8-8.2,14.43-16.33,24.25-21.17,10.35-5.11,21.86-5.84,31.71.4,8.87,5.62,14.8,15.96,14.09,27.62-.43,7.13-2.2,14.52-5.9,20.69l-10.82,18.04,12.47-3.85c9.28-1.44,17.95,1.86,23.84,7.72,14.14,14.06,7.19,36.3-4.97,52.65-11.75,15.81-24.38,30.22-37.65,44.86-11.34,12.51-20.68,25.1-30.14,39.55ZM391.87,217.62c-8.83,7.5-16.58,15.53-23.94,24.54l-26.25,32.09c-2.68,3.27-6.18,4.81-9.89,2.94-3.13-1.57-5.83-6.41-3.39-10.03l49.09-72.84,11.71-18.09c6.07-9.37,7.95-23.99-1.64-30.2-11.81-7.65-25.75,3.86-35.08,15.24-15.31,18.67-28.77,38.11-42.27,58.16l-14.15,21.01c-2.16,3.21-6.93,3.35-9.71,1.5-2.52-1.68-4.74-5.57-3.05-9.02l46.92-95.65,7.41-17.14c4.29-9.92,3.25-23.66-6.89-28.8-12.08-6.12-25.14,4.17-31.94,16.13l-10.81,19-44.16,91.22c-1.99,4.11-6.92,5-10.24,3.34-3.42-1.71-4.77-5.7-3.65-9.91l23.64-89.38c1.82-6.87,2.95-13.59,2.56-20.36-.59-10.09-7.61-17.33-17.7-17.58-17.53-.43-26.57,18.51-32.87,34.68-6.92,17.75-12.23,35.25-17.3,53.74l-21.59,78.79c-2.73,9.98-5.28,22.65-13.05,23.63-15.04,1.89-21.13-31.29-24.18-47.01-3.41-17.56-7.54-39.2-23.35-47.4-10.13-5.25-21.71-.62-25.37,10.25-2.68,7.94-3.13,16.25-2.03,25.11,4.66,37.62,12.37,74.37,24.26,110.36,8.95,27.07,25.57,50.12,49.26,65.83,26.14,17.33,56.94,25.34,88.21,24.31,22.13-.73,41.62-8.82,57.72-23.71,10.38-9.61,19.17-20.28,26.96-32.23l24.82-38.03c5.95-9.11,12.41-17.23,19.6-25.34l21.96-24.78c8.45-9.53,16.28-19.03,23.33-29.61,6.19-9.29,10.39-22.01,3.25-28.81-6.97-6.63-18.2-2.73-26.21,4.07Z"/>
</svg>
